<?xml version="1.0" standalone="no"?>
<!DOCTYPE svg PUBLIC "-//W3C//DTD SVG 20010904//EN"
 "http://www.w3.org/TR/2001/REC-SVG-20010904/DTD/svg10.dtd">
<svg version="1.0" xmlns="http://www.w3.org/2000/svg"
 width="864.000000pt" height="864.000000pt" viewBox="0 0 864.000000 864.000000"
 preserveAspectRatio="xMidYMid meet">
<metadata>
Created by potrace 1.11, written by Peter Selinger 2001-2013
</metadata>
<g transform="translate(0.000000,864.000000) scale(0.100000,-0.100000)"
fill="#000000" stroke="none">
<path d="M760 6501 c0 -1706 3 -2141 13 -2142 6 0 410 -1 897 -1 800 -1 1045
3 1105 18 11 3 36 6 55 8 19 2 46 7 60 10 14 3 36 8 50 11 14 2 43 9 65 15 22
6 47 13 55 15 8 2 16 4 18 5 1 2 5 3 10 5 4 1 16 5 27 9 11 4 45 17 75 29 280
105 533 318 718 603 29 44 52 85 52 91 0 6 4 13 8 15 14 6 146 287 157 333 1
5 5 19 9 30 28 74 36 95 35 98 0 1 2 9 5 17 11 31 66 257 72 294 3 21 8 48 10
60 4 21 11 66 20 136 26 207 25 653 -1 805 -3 17 -7 46 -9 65 -3 19 -5 35 -6
35 -1 0 -3 15 -6 34 -2 19 -6 44 -9 55 -2 12 -10 44 -16 71 -21 96 -82 281
-123 376 -45 101 -147 291 -166 309 -3 3 -26 34 -52 70 -65 91 -133 168 -224
250 -78 70 -186 150 -204 150 -5 0 -10 4 -10 8 0 5 -53 35 -117 66 -65 32
-126 62 -135 67 -10 5 -26 9 -36 9 -10 0 -22 4 -28 9 -11 10 -186 56 -269 70
-33 5 -76 13 -95 17 -19 4 -479 9 -1022 11 l-988 4 0 -2140z m1735 1634 c140
-10 155 -11 195 -19 19 -4 42 -8 50 -10 8 -1 24 -5 35 -9 11 -3 31 -8 45 -11
43 -8 142 -46 215 -83 252 -126 422 -338 551 -688 15 -42 70 -260 78 -310 13
-80 20 -131 20 -157 1 -16 3 -28 6 -28 22 0 16 -577 -6 -684 -3 -12 -6 -37 -9
-56 -5 -48 -42 -213 -62 -280 -9 -30 -17 -57 -18 -60 -5 -21 -42 -123 -58
-160 -11 -25 -21 -47 -21 -50 -3 -15 -90 -164 -128 -217 -122 -174 -319 -327
-498 -388 -3 -1 -12 -5 -20 -8 -38 -16 -167 -42 -260 -54 -19 -2 -311 -6 -647
-7 -448 -3 -613 0 -615 8 0 6 -2 745 -3 1641 -1 1310 1 1631 12 1635 19 8
1023 3 1138 -5z"/>
<path d="M4379 8638 c-7 -15 -2 -4271 5 -4276 12 -7 544 -7 551 0 3 3 5 338 5
745 l0 740 91 89 c126 122 161 155 354 339 92 88 182 175 200 193 18 17 34 32
37 32 8 0 88 -110 88 -120 0 -6 5 -10 10 -10 6 0 10 -6 10 -14 0 -8 3 -16 8
-18 9 -4 82 -105 82 -114 0 -3 6 -12 13 -19 29 -33 37 -45 37 -54 0 -5 4 -11
8 -13 5 -1 36 -43 70 -93 119 -173 165 -240 171 -245 3 -3 11 -13 16 -22 11
-19 24 -37 178 -256 59 -84 107 -155 107 -158 0 -3 11 -17 25 -32 14 -15 25
-32 25 -39 0 -6 4 -13 8 -15 5 -1 28 -32 52 -68 24 -36 48 -69 52 -75 5 -5 68
-95 140 -200 73 -104 135 -191 140 -193 4 -2 8 -8 8 -13 0 -7 173 -259 242
-353 14 -18 31 -19 384 -19 217 0 369 3 370 9 1 5 -31 53 -70 107 -39 54 -75
106 -81 115 -5 9 -35 51 -65 92 -30 41 -66 92 -80 112 -14 21 -28 38 -32 38
-5 0 -8 7 -8 15 0 8 -4 15 -10 15 -5 0 -10 7 -10 15 0 8 -4 15 -8 15 -4 0 -15
12 -24 28 -9 15 -24 36 -33 47 -8 11 -38 52 -65 90 -27 39 -53 75 -57 80 -5 6
-30 41 -57 78 -96 139 -201 282 -208 285 -5 2 -8 8 -8 13 0 8 -57 89 -93 134
-8 10 -73 101 -148 209 -23 33 -46 65 -51 70 -11 13 -189 261 -203 284 -5 8
-15 23 -22 31 -7 9 -46 63 -87 121 -41 58 -80 110 -85 117 -6 7 -11 16 -11 22
0 5 -4 11 -8 13 -4 2 -45 55 -89 118 -45 63 -86 120 -90 125 -5 6 -24 33 -42
60 -19 28 -43 60 -55 73 l-20 23 124 121 c207 199 597 577 695 673 51 50 182
176 292 282 189 183 256 248 543 527 l125 121 -399 3 -398 2 -1042 -1041
-1041 -1041 -3 1041 -2 1041 -280 0 c-154 0 -281 -1 -281 -2z"/>
<path d="M764 4281 c-2 -2 -4 -967 -4 -2143 l0 -2138 283 0 283 0 -1 743 -1
742 117 115 c64 63 192 187 284 275 92 88 194 186 226 217 l58 57 63 -89 c141
-199 164 -232 178 -254 8 -13 33 -49 55 -80 151 -213 195 -278 195 -285 0 -5
7 -11 15 -15 8 -3 15 -10 15 -16 0 -6 5 -16 11 -23 5 -7 37 -50 69 -97 33 -47
64 -92 70 -100 35 -49 179 -256 222 -320 28 -41 54 -77 58 -80 4 -3 13 -16 20
-29 7 -14 17 -30 22 -35 28 -34 98 -137 98 -146 0 -5 4 -10 10 -10 5 0 19 -18
30 -40 11 -22 25 -40 30 -40 6 0 10 -4 10 -10 0 -5 36 -60 80 -122 44 -62 84
-120 90 -128 5 -8 30 -44 55 -80 25 -36 51 -73 57 -84 7 -10 19 -24 26 -32 6
-7 12 -17 12 -23 0 -8 117 -11 381 -11 l381 0 -16 24 c-8 14 -103 148 -211
298 -107 150 -201 281 -208 292 -6 10 -18 24 -24 32 -7 7 -13 15 -13 19 0 3
-11 18 -25 33 -14 15 -25 32 -25 39 0 6 -4 13 -8 15 -4 2 -30 35 -57 73 -27
39 -53 75 -58 80 -4 6 -30 42 -57 80 -27 39 -53 75 -57 80 -5 6 -42 57 -83
115 -41 58 -78 106 -82 108 -5 2 -8 8 -8 13 0 6 -5 15 -10 22 -6 7 -40 53 -76
102 -35 50 -71 98 -79 108 -8 9 -15 20 -15 23 0 3 -20 31 -43 62 -24 31 -49
67 -55 79 -7 12 -18 27 -25 35 -7 7 -35 45 -62 83 -27 39 -53 72 -57 73 -4 2
-8 9 -8 15 0 7 -11 24 -25 39 -14 15 -25 30 -25 33 0 3 -5 11 -11 18 -10 12
-225 311 -288 402 -19 28 -37 52 -40 55 -12 11 -71 99 -71 106 0 4 42 48 94
98 205 198 837 810 964 934 58 56 195 189 305 295 385 372 411 397 401 398 -5
0 -185 1 -399 2 l-390 0 -1041 -1041 c-731 -731 -1043 -1036 -1046 -1024 -2 9
-3 477 -3 1040 1 1022 1 1022 -20 1023 -76 3 -537 3 -541 0z"/>
<path d="M4395 4282 c-20 -3 -20 -9 -20 -2143 l0 -2140 1030 4 c567 2 1039 6
1051 9 12 4 45 9 75 13 30 3 61 8 69 10 8 2 31 7 50 11 45 8 65 12 65 14 0 1
7 3 15 5 87 17 267 91 358 146 197 120 357 291 455 488 23 47 47 89 52 93 6 4
7 8 3 8 -4 0 -1 15 7 33 19 45 53 181 62 247 12 86 8 328 -6 405 -40 220 -128
394 -267 532 -50 50 -214 169 -214 157 0 -4 -6 -1 -13 5 -18 14 -138 73 -209
101 -49 20 -55 25 -40 34 9 6 26 17 37 24 11 6 35 20 53 29 17 9 32 20 32 25
0 4 5 8 11 8 17 0 131 94 184 152 71 78 126 169 176 293 8 20 36 126 47 180 4
17 6 109 6 205 -1 156 -4 186 -27 274 -25 92 -100 267 -119 274 -4 2 -8 8 -8
13 0 12 -54 83 -104 139 -34 38 -179 160 -190 160 -3 0 -27 13 -53 28 -95 56
-274 117 -403 136 -19 3 -46 8 -60 11 -65 14 -293 17 -1155 19 -511 0 -939 0
-950 -2z m739 -487 c17 0 46 2 64 6 17 4 32 4 32 0 0 -4 17 -6 38 -3 20 2 42
3 47 3 53 -2 592 -3 600 -1 6 1 12 2 15 1 3 -1 59 -4 125 -5 360 -9 538 -64
680 -209 51 -52 100 -127 112 -172 35 -127 40 -161 41 -255 2 -305 -111 -494
-361 -604 -31 -14 -57 -23 -57 -21 0 3 -13 -1 -30 -10 -16 -8 -32 -15 -35 -14
-5 1 -75 -10 -110 -18 -63 -13 -210 -17 -750 -17 l-600 -1 0 660 0 660 62 1
c35 0 66 3 69 7 4 4 11 4 17 0 6 -3 24 -7 41 -8z m1128 -1799 c48 -3 100 -8
115 -10 16 -3 44 -7 63 -10 35 -6 56 -10 115 -22 46 -9 187 -65 217 -86 14
-10 31 -18 37 -18 6 0 11 -4 11 -8 0 -5 12 -15 27 -23 26 -13 72 -56 122 -114
31 -36 99 -180 106 -225 3 -19 8 -43 11 -54 17 -53 9 -311 -11 -364 -2 -7 -5
-16 -6 -20 -3 -15 -48 -128 -61 -152 -51 -93 -113 -164 -201 -228 -56 -41
-174 -102 -199 -102 -8 0 -18 -3 -22 -7 -3 -4 -12 -8 -19 -9 -7 -1 -30 -7 -52
-12 -118 -32 -172 -34 -887 -36 -458 -1 -678 2 -679 9 -1 5 -3 344 -3 752 -2
740 -2 742 19 745 36 5 1208 0 1297 -6z"/>
</g>
</svg>
